<svg id="a867ae8f-4066-4e8a-889d-910bb0541fc3" data-name="Layer 1" xmlns="http://www.w3.org/2000/svg" viewBox="0 0 1014 125">
  <title>logo</title>
  <g>
    <path d="M137.6772,94.6221V10.2334h35.419a23.4321,23.4321,0,0,1,10.519,2.3774,26.98,26.98,0,0,1,8.2608,6.24,29.46,29.46,0,0,1,5.4077,8.7954A26.9755,26.9755,0,0,1,199.2451,37.69a29.1537,29.1537,0,0,1-1.8423,10.2812,28.81,28.81,0,0,1-5.17,8.7954,25.1814,25.1814,0,0,1-8.0229,6.1807,23.1765,23.1765,0,0,1-10.4,2.3174H150.9888V94.6221Zm13.3116-41.1245h21.9887a11.1561,11.1561,0,0,0,5.17-1.1885,11.8593,11.8593,0,0,0,3.9815-3.3281,16.644,16.644,0,0,0,2.6152-4.9922,19.851,19.851,0,0,0,.9507-6.2993,18.1657,18.1657,0,0,0-1.07-6.418,15.0716,15.0716,0,0,0-2.9712-4.9326,13.6448,13.6448,0,0,0-4.3384-3.2095,11.9023,11.9023,0,0,0-5.0517-1.1289H150.9888Z" style="fill: #f9f9f9"/>
    <path d="M238.23,95.8105a32.3087,32.3087,0,0,1-13.2525-2.6152,30.4261,30.4261,0,0,1-16.4619-17.2934,34.634,34.634,0,0,1,0-24.6031,30.407,30.407,0,0,1,6.4781-10.2812,31.6472,31.6472,0,0,1,10.1025-7.0127,34.2921,34.2921,0,0,1,26.2676,0,31.6726,31.6726,0,0,1,10.103,7.0127,30.4657,30.4657,0,0,1,6.4775,10.2812,34.634,34.634,0,0,1,0,24.6031,30.4471,30.4471,0,0,1-6.4775,10.2812,31.6112,31.6112,0,0,1-10.103,7.0122A32.0136,32.0136,0,0,1,238.23,95.8105ZM219.6885,63.7192a23.5028,23.5028,0,0,0,1.4262,8.32,20.6471,20.6471,0,0,0,3.9224,6.5966,18.3358,18.3358,0,0,0,5.8833,4.398,17.4524,17.4524,0,0,0,14.6192,0,17.962,17.962,0,0,0,5.8837-4.4575,21.4087,21.4087,0,0,0,3.9224-6.6558,24.8063,24.8063,0,0,0,0-16.5806,21.2871,21.2871,0,0,0-3.9224-6.7153,17.9537,17.9537,0,0,0-5.8837-4.457,16.8568,16.8568,0,0,0-7.31-1.605,16.1071,16.1071,0,0,0-7.1909,1.6641,18.7268,18.7268,0,0,0-5.8833,4.5166,22.18,22.18,0,0,0-3.9815,6.7153A22.7846,22.7846,0,0,0,219.6885,63.7192Z" style="fill: #f9f9f9"/>
    <path d="M318.1006,43.7515a29.2645,29.2645,0,0,0-13.49,3.5058,18.4808,18.4808,0,0,0-8.3794,9.3306V94.6221H283.1567V32.46H295.28V46.3662a28.4366,28.4366,0,0,1,8.3794-10.2812,20.3349,20.3349,0,0,1,11.1133-4.2193h1.9614a7.1281,7.1281,0,0,1,1.3667.1187Z" style="fill: #f9f9f9"/>
    <path d="M363.5034,91.4131a65.24,65.24,0,0,1-6.894,2.6738,29.1534,29.1534,0,0,1-9.39,1.4863,19.9546,19.9546,0,0,1-5.8237-.832,14.2131,14.2131,0,0,1-4.814-2.4961,11.31,11.31,0,0,1-3.2685-4.3384,15.8829,15.8829,0,0,1-1.1885-6.478V42.5625h-8.2012V32.46h8.2012V12.0166h13.0742V32.46h13.55V42.5625h-13.55V77.269a6.4464,6.4464,0,0,0,2.08,4.8135,7.0454,7.0454,0,0,0,4.5762,1.4859,14.5509,14.5509,0,0,0,5.2295-.9507q2.496-.95,3.6845-1.5454Z" style="fill: #f9f9f9"/>
    <path d="M377.4077,94.6221V44.1079h-8.32V34.0049h8.32V31.5088q0-11.5269,5.3486-18.1851,5.349-6.6548,14.5-6.6557a28.25,28.25,0,0,1,7.4883,1.01,33.7178,33.7178,0,0,1,7.0122,2.793l-2.8525,9.7466a18.0429,18.0429,0,0,0-4.2193-1.7832,16.7134,16.7134,0,0,0-4.6948-.7129,8.1213,8.1213,0,0,0-7.0722,3.4468q-2.4375,3.4489-2.4366,9.9838v2.8526h15.9268v10.103H390.4819V94.6221Z" style="fill: #f9f9f9"/>
    <path d="M442.3042,95.8105a32.3079,32.3079,0,0,1-13.2524-2.6152A30.4258,30.4258,0,0,1,412.59,75.9019a34.634,34.634,0,0,1,0-24.6031,30.407,30.407,0,0,1,6.4781-10.2812A31.6472,31.6472,0,0,1,429.17,34.0049a34.2921,34.2921,0,0,1,26.2676,0,31.67,31.67,0,0,1,10.103,7.0127,30.4675,30.4675,0,0,1,6.4776,10.2812,34.634,34.634,0,0,1,0,24.6031,30.4489,30.4489,0,0,1-6.4776,10.2812,31.609,31.609,0,0,1-10.103,7.0122A32.0136,32.0136,0,0,1,442.3042,95.8105ZM423.7627,63.7192a23.5005,23.5005,0,0,0,1.4263,8.32,20.6469,20.6469,0,0,0,3.9223,6.5966,18.3358,18.3358,0,0,0,5.8833,4.398,17.4524,17.4524,0,0,0,14.6192,0,17.9634,17.9634,0,0,0,5.8838-4.4575A21.4085,21.4085,0,0,0,459.42,71.92a24.8063,24.8063,0,0,0,0-16.5806,21.2868,21.2868,0,0,0-3.9223-6.7153,17.9551,17.9551,0,0,0-5.8838-4.457,16.8565,16.8565,0,0,0-7.31-1.605,16.1071,16.1071,0,0,0-7.1909,1.6641,18.7268,18.7268,0,0,0-5.8833,4.5166,22.18,22.18,0,0,0-3.9815,6.7153A22.7846,22.7846,0,0,0,423.7627,63.7192Z" style="fill: #f9f9f9"/>
    <path d="M487.35,7.8564h13.0742V76.6748a7.74,7.74,0,0,0,1.7827,5.4077,6.4051,6.4051,0,0,0,4.9922,1.9614,11.5838,11.5838,0,0,0,3.0308-.4755q1.7219-.474,3.2685-1.07L515.4,92.7207a30.3828,30.3828,0,0,1-6.7749,2.08,36.8142,36.8142,0,0,1-7.0127.7724q-6.7749,0-10.5185-3.6845t-3.7442-10.46Z" style="fill: #f9f9f9"/>
    <path d="M524.3145,22.2383V7.8564h13.0742V22.2383Zm0,72.3838V32.46h13.0742V94.6221Z" style="fill: #f9f9f9"/>
    <path d="M582.3154,95.8105a32.3093,32.3093,0,0,1-13.2529-2.6152,30.4294,30.4294,0,0,1-16.4619-17.2934,34.6412,34.6412,0,0,1,0-24.6031,30.4132,30.4132,0,0,1,6.4775-10.2812,31.6527,31.6527,0,0,1,10.1035-7.0127,34.29,34.29,0,0,1,26.2666,0,31.6631,31.6631,0,0,1,10.1036,7.0127,30.46,30.46,0,0,1,6.4775,10.2812,34.6412,34.6412,0,0,1,0,24.6031,30.4409,30.4409,0,0,1-6.4775,10.2812,31.6017,31.6017,0,0,1-10.1036,7.0122A32.0081,32.0081,0,0,1,582.3154,95.8105Zm-18.542-32.0913a23.5228,23.5228,0,0,0,1.4258,8.32,20.6573,20.6573,0,0,0,3.9229,6.5966,18.3382,18.3382,0,0,0,5.8828,4.398,17.4544,17.4544,0,0,0,14.62,0,17.9638,17.9638,0,0,0,5.8828-4.4575,21.41,21.41,0,0,0,3.9229-6.6558,24.8162,24.8162,0,0,0,0-16.5806,21.2882,21.2882,0,0,0-3.9229-6.7153,17.9554,17.9554,0,0,0-5.8828-4.457,16.8594,16.8594,0,0,0-7.31-1.605,16.1092,16.1092,0,0,0-7.1914,1.6641,18.72,18.72,0,0,0-5.8828,4.5166,22.19,22.19,0,0,0-3.9824,6.7153A22.8056,22.8056,0,0,0,563.7734,63.7192Z" style="fill: #f9f9f9"/>
    <path d="M696.5352,10.2334V94.6221H688.334v-39.46H638.2949V94.6221h-8.32V10.2334h8.32V47.7925H688.334V10.2334Z" style="fill: #f9f9f9"/>
    <path d="M717.334,19.7422V7.8564h8.082V19.7422Zm0,74.88V32.6978h8.082V94.6221Z" style="fill: #f9f9f9"/>
    <path d="M765.1133,95.8105A43.1017,43.1017,0,0,1,750.97,93.4336,33.9461,33.9461,0,0,1,739.084,86.54l3.6846-5.4677a40.2449,40.2449,0,0,0,10.6376,6.4184A31.2043,31.2043,0,0,0,764.9941,89.63q7.4883,0,11.9454-3.0308a9.8068,9.8068,0,0,0,4.457-8.6172,7.4816,7.4816,0,0,0-1.1885-4.3379,10.3231,10.3231,0,0,0-3.5059-3.0312,27.493,27.493,0,0,0-5.8242-2.3174q-3.5068-1.0086-8.1416-2.08-5.35-1.3067-9.2715-2.6147a28.2679,28.2679,0,0,1-6.4775-2.9717,10.6959,10.6959,0,0,1-3.8027-4.1006,13.3528,13.3528,0,0,1-1.2481-6.1211,17.5993,17.5993,0,0,1,1.8418-8.2011,16.7073,16.7073,0,0,1,4.9922-5.8833,22.6661,22.6661,0,0,1,7.3691-3.5064,33.0019,33.0019,0,0,1,8.9737-1.1885,34.7528,34.7528,0,0,1,12.9551,2.3179,25.6106,25.6106,0,0,1,9.39,6.1211l-3.9219,4.7539a21.7619,21.7619,0,0,0-8.38-5.3481,30.0022,30.0022,0,0,0-10.28-1.7832,25.5938,25.5938,0,0,0-5.9434.6538,14.31,14.31,0,0,0-4.8135,2.08,10.2285,10.2285,0,0,0-3.2685,3.625,10.7143,10.7143,0,0,0-1.1885,5.1705,8.4955,8.4955,0,0,0,.832,4.041,7.0715,7.0715,0,0,0,2.7334,2.6743,22.1536,22.1536,0,0,0,4.8135,2.02q2.9121.8913,7.0723,1.8423,5.9414,1.4266,10.459,2.8525a32.9284,32.9284,0,0,1,7.5478,3.3281,13.1337,13.1337,0,0,1,4.5762,4.6353,13.3609,13.3609,0,0,1,1.5449,6.6562,16.1484,16.1484,0,0,1-6.5371,13.55Q776.1665,95.81,765.1133,95.8105Z" style="fill: #f9f9f9"/>
    <path d="M833.4561,91.65q-.7134.3574-2.08.9512-1.3682.5961-3.15,1.1884a36.2888,36.2888,0,0,1-4.041,1.0694,23.07,23.07,0,0,1-4.7539.4756,17.2672,17.2672,0,0,1-4.9922-.7129,11.6072,11.6072,0,0,1-4.16-2.1992,10.8019,10.8019,0,0,1-2.8525-3.7437,12.0852,12.0852,0,0,1-1.0694-5.2295V39.1157h-8.5576V32.6978h8.5576V11.7788h8.0821v20.919h14.2627v6.4179H814.4385V81.1914a6.4143,6.4143,0,0,0,2.4365,5.0513,8.3456,8.3456,0,0,0,5.0518,1.6045,15.1662,15.1662,0,0,0,6.0615-1.1289,26.6154,26.6154,0,0,0,3.3281-1.605Z" style="fill: #f9f9f9"/>
    <path d="M869.708,95.8105a29.3722,29.3722,0,0,1-12.3613-2.5556,30.33,30.33,0,0,1-9.6865-6.9527,31.5093,31.5093,0,0,1-6.3594-10.2216,33.5545,33.5545,0,0,1-2.2578-12.2427A33.13,33.13,0,0,1,841.36,51.4771a32.4087,32.4087,0,0,1,6.4179-10.2217,31.1894,31.1894,0,0,1,9.6875-7.0127,28.5253,28.5253,0,0,1,12.2422-2.6148A28.9322,28.9322,0,0,1,882.01,34.2427a31.0018,31.0018,0,0,1,9.7461,7.0127,32.4087,32.4087,0,0,1,6.4179,10.2217,33.13,33.13,0,0,1,2.3184,12.3608,33.5971,33.5971,0,0,1-2.2588,12.2427,31.5407,31.5407,0,0,1-6.3584,10.2216,30.19,30.19,0,0,1-9.7471,6.9527A29.7748,29.7748,0,0,1,869.708,95.8105ZM847.2441,63.957a25.8429,25.8429,0,0,0,1.7823,9.687,26.2725,26.2725,0,0,0,4.8144,7.8443,21.7439,21.7439,0,0,0,7.1309,5.289,20.5,20.5,0,0,0,8.7363,1.9019,19.9936,19.9936,0,0,0,8.7354-1.9609,23.2164,23.2164,0,0,0,7.1914-5.3487,25.4787,25.4787,0,0,0,4.873-7.9043,27.3638,27.3638,0,0,0,0-19.4331,25.3464,25.3464,0,0,0-4.873-7.9634,23.2145,23.2145,0,0,0-7.1914-5.3486,19.9936,19.9936,0,0,0-8.7354-1.9609,19.61,19.61,0,0,0-8.6768,1.9609,23.0011,23.0011,0,0,0-7.1318,5.4082,26.072,26.072,0,0,0-4.873,8.023A26.7764,26.7764,0,0,0,847.2441,63.957Z" style="fill: #f9f9f9"/>
    <path d="M946.25,39.8291a25.431,25.431,0,0,0-14.2627,4.5166,22.7721,22.7721,0,0,0-8.5586,11.7666v38.51h-8.082V32.6978h7.6074V47.5547a28.148,28.148,0,0,1,9.27-11.1724,21.491,21.491,0,0,1,12.48-4.0415,8.2512,8.2512,0,0,1,1.5459.1192Z" style="fill: #f9f9f9"/>
    <path d="M961.94,113.64q.9492.1158,1.8417.1778c.5948.039,1.168.06,1.7237.06a8.0047,8.0047,0,0,0,3.3877-.5948,6.3142,6.3142,0,0,0,2.4365-2.6142,42.9848,42.9848,0,0,0,2.6738-5.8242q1.4855-3.8058,4.22-10.2217L951.2422,32.6978h8.3193L982.501,87.1343l21.2754-54.4365h7.7256l-32.0909,79.8715a14.5423,14.5423,0,0,1-4.3388,6.002q-3.0308,2.5547-8.26,2.5557-1.1895,0-2.2588-.06t-2.6142-.2969Z" style="fill: #f9f9f9"/>
  </g>
  <g>
    <g>
      <circle cx="54.5" cy="52.5" r="47" style="fill: #003eff"/>
      <path d="M54.5,10A42.5,42.5,0,1,1,12,52.5,42.5,42.5,0,0,1,54.5,10m0-9A51.5,51.5,0,1,0,106,52.5,51.5583,51.5583,0,0,0,54.5,1Z" style="fill: #f9f9f9"/>
    </g>
    <polyline points="28 70.281 42.019 52.5 50.5 60.5 58.5 42.5 66.639 52.5 81 34.719" style="fill: none;stroke: #f9f9f9;stroke-linecap: round;stroke-linejoin: round;stroke-width: 9px"/>
  </g>
</svg>
